<svg xmlns="http://www.w3.org/2000/svg" xmlns:xlink="http://www.w3.org/1999/xlink" version="1.1" x="0px" y="0px" fill="white" viewBox="0 0 100 78" enable-background="new 0 0 100 100" xml:space="preserve"><path d="M78.921,28.631H54.245L50,35.983l-4.246-7.353H21.079L8.741,50l12.338,21.37h24.676L50,64.018l4.245,7.353h24.676L91.26,50  L78.921,28.631z M86.929,48.5H67.45l-9.741-16.869h19.479L86.929,48.5z M22.812,31.63h19.48l-9.74,16.87h-19.48L22.812,31.63z   M13.071,51.5h19.48l9.74,16.87h-19.48L13.071,51.5z M44.889,66.869L35.149,50l9.74-16.869l3.379,5.853L41.908,50l6.36,11.017  L44.889,66.869z M50,41.983L54.629,50L50,58.017L45.372,50L50,41.983z M58.094,50l-6.361-11.017l3.379-5.852L64.852,50l-9.74,16.87  l-3.379-5.853L58.094,50z M77.188,68.37H57.709L67.45,51.5h19.479L77.188,68.37z"/></svg>
